<svg width="300" height="300" viewBox="0 0 300 300" fill="none" xmlns="http://www.w3.org/2000/svg">
<rect width="300" height="300" fill="url(#paint0_linear_54_3)"/>
<path d="M21.875 140.906C22.25 141.594 22.625 142.25 23 142.875C23.375 143.5 23.6875 144.062 23.9375 144.562C25 146.438 26.0625 148.281 27.125 150.094C28 151.656 28.9375 153.281 29.9375 154.969C30.9375 156.594 31.8125 158 32.5625 159.188C32.25 159.438 31.8438 159.625 31.3438 159.75C30.8438 159.812 30.3438 159.875 29.8438 159.938C29.2188 160 28.5625 160.031 27.875 160.031C26.3125 160.031 25.2812 159.938 24.7812 159.75C24.2812 159.562 23.875 159.188 23.5625 158.625C23.5 158.5 23.125 157.875 22.4375 156.75C21.75 155.625 20.9375 154.25 20 152.625C19.0625 151 18.0312 149.219 16.9062 147.281C15.8438 145.281 14.8438 143.375 13.9062 141.562C13.7812 141.25 13.625 140.906 13.4375 140.531C13.1875 140.156 13.0625 139.844 13.0625 139.594C13.0625 139.531 13.125 139.406 13.25 139.219C13.4375 138.969 13.875 138.531 14.5625 137.906L30.9688 124.031C31.4062 123.656 31.8438 123.344 32.2812 123.094C32.7188 122.844 33.2188 122.625 33.7812 122.438C34.3438 122.188 35 122 35.75 121.875C36.5625 121.688 37.5625 121.531 38.75 121.406C39.75 121.281 40.5312 121.25 41.0938 121.312C41.6562 121.312 42.0625 121.375 42.3125 121.5C42.625 121.562 42.7812 121.656 42.7812 121.781C42.8438 121.906 42.8438 122 42.7812 122.062C42.4688 122.375 41.5938 123.156 40.1562 124.406C38.7812 125.594 37.0938 127.062 35.0938 128.812C33.1562 130.562 31 132.5 28.625 134.625C26.3125 136.75 24.0625 138.844 21.875 140.906ZM40.4375 183.094C39.875 182.719 39.5938 182.312 39.5938 181.875C39.5312 181.438 39.625 181 39.875 180.562C40.125 180.062 40.5 179.562 41 179.062C41.5 178.625 42.0938 177.5 42.7812 175.688C43.4688 173.938 44.1875 171.812 44.9375 169.312C45.75 166.75 46.5312 163.969 47.2812 160.969C48.0938 157.969 48.8438 155.031 49.5312 152.156C50.2188 149.281 50.8125 146.625 51.3125 144.188C51.8125 141.75 52.1875 139.812 52.4375 138.375C52.75 136.625 53.0938 134.719 53.4688 132.656C53.7812 130.844 54.125 128.75 54.5 126.375C54.875 123.938 55.2188 121.25 55.5312 118.312L63.0312 114.938C64.0938 114.438 64.8438 114.562 65.2812 115.312C65.7188 116 65.7188 117.469 65.2812 119.719C65.0938 120.844 64.75 122.688 64.25 125.25C63.75 127.75 63.1562 130.531 62.4688 133.594C61.8438 136.594 61.1562 139.688 60.4062 142.875C59.7188 146 59.0312 148.781 58.3438 151.219C57.7188 153.531 57 156.188 56.1875 159.188C54.75 164.312 52.75 171.312 50.1875 180.188C51.0625 181.688 52.6875 182.438 55.0625 182.438C57.6875 182.438 60.7188 181.438 64.1562 179.438C67.6562 177.438 71.0312 174.438 74.2812 170.438C77.5312 166.438 80.375 161.438 82.8125 155.438C85.3125 149.375 86.875 142.312 87.5 134.25C87.8125 129.875 87.5938 126.031 86.8438 122.719C86.0938 119.406 84.9375 116.625 83.375 114.375C81.875 112.125 80 110.438 77.75 109.312C75.5625 108.188 73.125 107.625 70.4375 107.625C64.125 107.625 57.5938 110.25 50.8438 115.5L50.375 107.719C52 105.906 53.8438 104.531 55.9062 103.594C58.0312 102.594 60 101.844 61.8125 101.344C63.9375 100.781 66.0938 100.469 68.2812 100.406C72.2812 100.406 76.125 101.188 79.8125 102.75C83.5625 104.25 86.7812 106.562 89.4688 109.688C92.2188 112.812 94.3125 116.75 95.75 121.5C97.1875 126.188 97.6875 131.688 97.25 138C97 141.625 96.25 145.406 95 149.344C93.8125 153.219 92.2188 157.031 90.2188 160.781C88.2812 164.531 85.9688 168.094 83.2812 171.469C80.5938 174.844 77.6562 177.781 74.4688 180.281C71.2812 182.844 67.875 184.844 64.25 186.281C60.625 187.781 56.875 188.531 53 188.531C51.8125 188.469 50.5312 188.25 49.1562 187.875C47.9688 187.562 46.625 187.031 45.125 186.281C43.625 185.531 42.0625 184.469 40.4375 183.094ZM129.875 143.906C128.125 143.844 125.906 143.844 123.219 143.906C120.531 143.906 117.875 143.938 115.25 144C113.5 144.062 111.719 144.188 109.906 144.375C108.344 144.5 106.625 144.688 104.75 144.938C102.875 145.188 101.094 145.562 99.4062 146.062C99.3438 145.562 99.3438 145.094 99.4062 144.656C99.4688 144.156 99.5625 143.688 99.6875 143.25C99.8125 142.75 99.9375 142.281 100.062 141.844C100.312 141.219 100.656 140.562 101.094 139.875C101.594 139.188 102.031 138.75 102.406 138.562C102.719 138.438 103.344 138.312 104.281 138.188C105.281 138.062 106.438 137.969 107.75 137.906C109.125 137.781 110.625 137.688 112.25 137.625C113.938 137.562 115.594 137.531 117.219 137.531C120.531 137.469 123.281 137.5 125.469 137.625C127.656 137.688 129.75 137.812 131.75 138C132.625 138.125 133.125 138.406 133.25 138.844C133.438 139.281 133.344 140.062 132.969 141.188C132.594 142.25 132.188 143 131.75 143.438C131.312 143.812 130.688 143.969 129.875 143.906ZM177.219 151.5C175.344 154.25 173.219 156.938 170.844 159.562C168.469 162.125 165.938 164.438 163.25 166.5C160.625 168.5 157.906 170.125 155.094 171.375C152.344 172.625 149.656 173.25 147.031 173.25C145.656 173.25 144.156 172.906 142.531 172.219C140.969 171.594 139.531 170.594 138.219 169.219C136.906 167.844 135.844 166.062 135.031 163.875C134.281 161.688 134.062 159.031 134.375 155.906C134.625 153.344 135.406 150.656 136.719 147.844C138.094 144.969 139.75 142.344 141.688 139.969C143.688 137.594 145.906 135.625 148.344 134.062C150.844 132.5 153.344 131.719 155.844 131.719C158.219 131.719 159.938 132.312 161 133.5C162.062 134.688 162.531 136.156 162.406 137.906C162.219 139.844 161.656 141.625 160.719 143.25C159.844 144.875 158.781 146.344 157.531 147.656C156.281 148.969 154.938 150.156 153.5 151.219C152.125 152.281 150.812 153.25 149.562 154.125C148.188 155.062 146.875 155.969 145.625 156.844C144.375 157.656 143.281 158.406 142.344 159.094C142.406 160.656 142.688 161.969 143.188 163.031C143.688 164.094 144.312 164.969 145.062 165.656C145.812 166.281 146.656 166.75 147.594 167.062C148.594 167.312 149.594 167.438 150.594 167.438C152.719 167.438 154.938 166.781 157.25 165.469C159.562 164.094 161.812 162.469 164 160.594C166.25 158.656 168.312 156.656 170.188 154.594C172.125 152.531 173.719 150.75 174.969 149.25C175.406 148.75 175.844 148.469 176.281 148.406C176.781 148.281 177.156 148.344 177.406 148.594C177.719 148.781 177.875 149.156 177.875 149.719C177.875 150.219 177.656 150.812 177.219 151.5ZM153.219 137.062C152.469 137.062 151.562 137.438 150.5 138.188C149.5 138.938 148.5 140.031 147.5 141.469C146.5 142.844 145.562 144.562 144.688 146.625C143.812 148.625 143.156 150.938 142.719 153.562C143.469 153 144.281 152.438 145.156 151.875C146.031 151.25 146.906 150.594 147.781 149.906C150.469 147.844 152.344 146.031 153.406 144.469C154.469 142.906 155.062 141.562 155.188 140.438C155.312 139.25 155.188 138.406 154.812 137.906C154.438 137.344 153.906 137.062 153.219 137.062ZM197.938 154.312C196.312 156.688 194.625 159 192.875 161.25C191.188 163.5 189.531 165.531 187.906 167.344C186.344 169.094 184.875 170.5 183.5 171.562C182.188 172.688 181.125 173.25 180.312 173.25C178.375 173.25 176.781 172.344 175.531 170.531C174.344 168.656 173.406 166.375 172.719 163.688C172.094 160.938 171.688 158.031 171.5 154.969C171.375 151.844 171.406 149.062 171.594 146.625C171.844 144.188 172.125 142.25 172.438 140.812C172.75 139.312 173.125 138.156 173.562 137.344C174.062 136.531 174.625 135.938 175.25 135.562C175.938 135.188 176.781 134.875 177.781 134.625C178.219 134.5 178.719 134.406 179.281 134.344C179.844 134.281 180.344 134.312 180.781 134.438C181.281 134.5 181.656 134.688 181.906 135C182.156 135.312 182.188 135.781 182 136.406C181.875 136.969 181.656 137.812 181.344 138.938C181.094 140 180.812 141.219 180.5 142.594C180.188 143.969 179.875 145.406 179.562 146.906C179.312 148.406 179.125 149.844 179 151.219C178.812 153.594 178.812 155.688 179 157.5C179.188 159.25 179.469 160.75 179.844 162C180.219 163.188 180.625 164.094 181.062 164.719C181.5 165.344 181.844 165.656 182.094 165.656C182.406 165.656 182.969 165.25 183.781 164.438C184.656 163.562 185.625 162.438 186.688 161.062C187.812 159.688 188.969 158.094 190.156 156.281C191.406 154.469 192.562 152.594 193.625 150.656C193.25 149.656 193.094 148.469 193.156 147.094C193.344 144.969 193.812 143.062 194.562 141.375C195.312 139.625 196.156 138.156 197.094 136.969C198.094 135.781 199.094 134.875 200.094 134.25C201.156 133.562 202.094 133.219 202.906 133.219C204.531 133.219 205.531 133.656 205.906 134.531C206.344 135.344 206.5 136.188 206.375 137.062C206.25 138.375 205.656 140.188 204.594 142.5C203.594 144.75 202.281 147.219 200.656 149.906C200.969 150.031 201.312 150.156 201.688 150.281C202.062 150.406 202.5 150.469 203 150.469C205.125 150.469 207.031 150.219 208.719 149.719C210.469 149.219 211.969 148.625 213.219 147.938C214.531 147.25 215.625 146.531 216.5 145.781C217.438 144.969 218.188 144.312 218.75 143.812C219.125 143.438 219.5 143.25 219.875 143.25C220.25 143.25 220.562 143.344 220.812 143.531C221.062 143.719 221.188 144 221.188 144.375C221.188 144.75 221 145.156 220.625 145.594C218.375 148.344 215.625 150.562 212.375 152.25C209.188 153.938 205.438 154.781 201.125 154.781C200.75 154.781 200.281 154.75 199.719 154.688C199.156 154.625 198.562 154.5 197.938 154.312ZM269.814 105.17C271.279 104.877 272.246 104.789 272.715 104.906C273.242 104.965 273.447 105.141 273.33 105.434C273.037 105.902 272.393 106.957 271.396 108.598C270.4 110.238 269.17 112.289 267.705 114.75C266.24 117.152 264.6 119.848 262.783 122.836C261.025 125.824 259.238 128.871 257.422 131.977C255.664 135.082 253.965 138.129 252.324 141.117C250.742 144.105 249.365 146.83 248.193 149.291C246.729 152.045 245.352 154.74 244.062 157.377C242.949 159.604 241.807 161.977 240.635 164.496C239.463 166.957 238.525 169.037 237.822 170.736C236.885 171.205 236.064 171.527 235.361 171.703C234.6 171.938 233.926 172.113 233.34 172.23C232.695 172.348 232.08 172.406 231.494 172.406C230.322 172.406 229.678 172.26 229.561 171.967C229.385 171.674 229.502 171.146 229.912 170.385C230.322 169.682 231.348 167.836 232.988 164.848C233.691 163.559 234.57 161.977 235.625 160.102C236.68 158.168 237.969 155.824 239.492 153.07C241.016 150.316 242.803 147.123 244.854 143.49C246.904 139.799 249.248 135.58 251.885 130.834L263.926 109.301C264.512 108.129 265.186 107.279 265.947 106.752C266.768 106.166 268.057 105.639 269.814 105.17ZM275.111 122.625C275.174 122.75 275.549 123.375 276.236 124.5C276.924 125.625 277.736 127 278.674 128.625C279.674 130.25 280.705 132.062 281.768 134.062C282.893 136 283.924 137.875 284.861 139.688C284.986 140 285.143 140.375 285.33 140.812C285.58 141.188 285.705 141.469 285.705 141.656C285.705 141.719 285.643 141.844 285.518 142.031C285.393 142.156 285.236 142.344 285.049 142.594C284.861 142.844 284.58 143.125 284.205 143.438L267.705 157.312C267.268 157.625 266.83 157.938 266.393 158.25C266.018 158.5 265.549 158.719 264.986 158.906C264.424 159.094 263.736 159.281 262.924 159.469C262.111 159.594 261.111 159.719 259.924 159.844C258.924 159.969 258.143 160.031 257.58 160.031C257.018 159.969 256.611 159.906 256.361 159.844C256.049 159.719 255.861 159.594 255.799 159.469C255.736 159.344 255.768 159.25 255.893 159.188C256.268 158.875 257.143 158.125 258.518 156.938C259.893 155.688 261.58 154.188 263.58 152.438C265.58 150.688 267.736 148.75 270.049 146.625C272.361 144.5 274.643 142.375 276.893 140.25C276.518 139.625 276.111 139 275.674 138.375C275.299 137.688 274.986 137.094 274.736 136.594C273.674 134.719 272.611 132.906 271.549 131.156C270.674 129.656 269.736 128.094 268.736 126.469C267.799 124.781 266.955 123.312 266.205 122.062C266.455 121.875 266.83 121.75 267.33 121.688C267.83 121.562 268.33 121.469 268.83 121.406C269.455 121.344 270.111 121.312 270.799 121.312C272.361 121.312 273.393 121.406 273.893 121.594C274.393 121.781 274.799 122.125 275.111 122.625Z" fill="#F28504"/>
<path d="M297.5 141C297.5 162.262 281.194 181.63 254.565 195.712C227.958 209.782 191.166 218.5 150.5 218.5C109.834 218.5 73.0423 209.782 46.4355 195.712C19.8062 181.63 3.5 162.262 3.5 141C3.5 119.738 19.8062 100.37 46.4355 86.2877C73.0423 72.2176 109.834 63.5 150.5 63.5C191.166 63.5 227.958 72.2176 254.565 86.2877C281.194 100.37 297.5 119.738 297.5 141Z" stroke="#F28504"/>
<defs>
<linearGradient id="paint0_linear_54_3" x1="150" y1="-5.4375" x2="150" y2="300" gradientUnits="userSpaceOnUse">
<stop stop-color="#000009"/>
<stop offset="1" stop-color="#010025"/>
</linearGradient>
</defs>
</svg>
